<svg width="310" height="310" viewBox="0 0 310 310" fill="none" xmlns="http://www.w3.org/2000/svg">
<path fill-rule="evenodd" clip-rule="evenodd" d="M56 50C44.9543 50 36 58.9543 36 70V187C36 198.046 44.9543 207 56 207H113.134L62.3694 229.637C46.5963 236.671 51.6153 260.25 68.8856 260.25H178.557C148.822 247.47 128 217.917 128 183.5C128 137.384 165.384 100 211.5 100C234.791 100 255.855 109.536 271 124.917V70C271 58.9543 262.046 50 251 50H56ZM153 170.5C153 165.909 153.651 161.471 154.866 157.272L185.5 187.906L215.906 157.5L184.256 125.85C189.324 124.006 194.794 123 200.5 123C226.734 123 248 144.266 248 170.5C248 176.206 246.994 181.676 245.15 186.744L276.925 218.519C281.22 222.815 281.22 229.78 276.925 234.075L262.075 248.925C257.78 253.22 250.815 253.22 246.519 248.925L213.728 216.134C209.529 217.349 205.091 218 200.5 218C174.266 218 153 196.734 153 170.5Z"/>
<style>
path {
fill: #000;
}
@media (prefers-color-scheme: dark) {
path {
fill: #fff;
}
}
</style>
</svg>
